# xmcd
#
# Track frame offsets: 
#        182
#        14320
#        33040
#        47232
#        63360
#        76997
#        88932
#        117682
#        125517
#        146005
#
# Disc length: 2105 seconds
#
# Revision: 6
# Processed by: cddbd v1.5.2PL0 Copyright (c) Steve Scherf et al.
# Submitted via: ExactAudioCopyFreeDBPlugin 1.0
#
DISCID=8708370a
DTITLE=B.B. King - Live at the Regal
DYEAR=1964
DGENRE=Blues
TTITLE0=Every Day I Have the Blues
TTITLE1=Sweet Little Angel
TTITLE2=It's My Own Fault
TTITLE3=How Blue Can You Get?
TTITLE4=Please Love Me
TTITLE5=You Upset Me Baby
TTITLE6=Worry, Worry
TTITLE7=Woke Up This Mornin
TTITLE8=You Done Lost Your Good Thing Now
TTITLE9=Help the Poor
EXTD=Recorded Live at the Regal Theatre, Chicago, 11/21/1964
EXTT0=Regal Theatre, Chicago, 11/21/1964
EXTT1=Regal Theatre, Chicago, 11/21/1964
EXTT2=Regal Theatre, Chicago, 11/21/1964
EXTT3=Regal Theatre, Chicago, 11/21/1964
EXTT4=Regal Theatre, Chicago, 11/21/1964
EXTT5=Regal Theatre, Chicago, 11/21/1964
EXTT6=Regal Theatre, Chicago, 11/21/1964
EXTT7=Regal Theatre, Chicago, 11/21/1964
EXTT8=Regal Theatre, Chicago, 11/21/1964
EXTT9=Regal Theatre, Chicago, 11/21/1964
PLAYORDER=
